<svg xmlns="http://www.w3.org/2000/svg" width="90" height="90" viewBox="0 0 90 90">
  <g>
    <path d="M70.4445,36.178a6.41038,6.41038,0,0,1-2.22876,4.52027L50.65768,55.8785a6.66878,6.66878,0,0,1-4.37686,1.6193,1.74514,1.74514,0,0,1-.232-.00988l-.66558-.05961A6.56957,6.56957,0,0,1,41.914,55.799L31.74826,46.65908a6.5512,6.5512,0,1,1,8.64288-9.84526l3.39864,3.04a3.99778,3.99778,0,0,0,5.29464.04967L59.351,31.03182A6.7973,6.7973,0,0,1,66.42058,29.78,6.55106,6.55106,0,0,1,70.4445,36.178Z" style="fill: #25cf60"/>
    <path d="M33.71108,88.42241C9.40545,81.92068-4.99867,57.15248,1.60144,33.20915S33.3447-4.9242,57.65033,1.57753a6.67762,6.67762,0,0,1,4.7732,8.20672,6.80122,6.80122,0,0,1-8.33135,4.70127C37.01305,9.91687,19.34411,19.88883,14.706,36.7146A31.60466,31.60466,0,0,0,37.26941,75.5138c17.08037,4.569,34.74914-5.40236,39.38708-22.22752A6.80178,6.80178,0,0,1,84.988,48.58439a6.67818,6.67818,0,0,1,4.773,8.20734C83.16094,80.73506,58.01671,94.92413,33.71108,88.42241Z" style="fill: #25cf60"/>
  </g>
</svg>
